<?xml version="1.0" standalone="no"?>
<!DOCTYPE svg PUBLIC "-//W3C//DTD SVG 20010904//EN"
 "http://www.w3.org/TR/2001/REC-SVG-20010904/DTD/svg10.dtd">
<svg version="1.0" xmlns="http://www.w3.org/2000/svg"
 width="700.000000pt" height="700.000000pt" viewBox="0 0 700.000000 700.000000"
 preserveAspectRatio="xMidYMid meet">
<metadata>
Created by potrace 1.14, written by Peter Selinger 2001-2017
</metadata>
<g transform="translate(0.000000,700.000000) scale(0.100000,-0.100000)"
fill="#000000" stroke="none">
<path d="M6014 5545 l0 -115 188 0 188 0 1 -22 c0 -30 0 -3786 0 -3815 l-1
-23 -189 0 -188 0 1 -115 1 -115 493 0 492 0 0 115 0 115 -189 0 -190 0 0
1930 0 1930 190 0 189 0 0 114 0 115 -493 0 -493 1 0 -115z"/>
<path d="M1500 5154 c-100 -27 -201 -101 -259 -192 -16 -26 -111 -231 -211
-457 -100 -225 -188 -423 -195 -440 -8 -16 -75 -169 -151 -340 -135 -307 -173
-392 -199 -450 -7 -16 -56 -127 -108 -245 -52 -118 -104 -235 -115 -260 -106
-235 -232 -525 -247 -568 -40 -124 14 -281 126 -362 94 -68 241 -78 352 -25
89 41 144 111 207 257 29 67 63 147 76 176 13 29 24 55 24 58 0 3 8 24 19 47
10 23 28 65 40 92 12 28 27 62 34 78 l12 27 728 -2 728 -3 75 -175 c41 -96 81
-188 88 -205 8 -16 27 -62 44 -101 55 -131 109 -197 204 -250 49 -26 61 -29
153 -29 90 0 106 3 157 29 163 81 236 275 166 441 -30 70 -283 643 -322 728
-14 31 -38 85 -52 120 -15 34 -42 96 -61 137 -19 41 -55 122 -80 180 -25 58
-61 138 -79 178 -19 41 -34 75 -34 77 0 2 -13 32 -29 67 -16 35 -72 160 -124
278 -52 118 -104 235 -115 260 -12 25 -76 169 -142 320 -151 342 -169 376
-235 442 -89 90 -184 126 -332 126 -48 0 -113 -6 -143 -14z m230 -1104 c229
-543 292 -696 316 -756 15 -38 31 -73 35 -79 5 -5 9 -13 9 -17 0 -4 -205 -8
-455 -8 -314 0 -455 3 -455 11 0 5 36 94 79 197 43 103 139 329 211 502 73
173 139 331 147 350 l15 34 25 -59 c14 -33 47 -112 73 -175z"/>
<path d="M4618 4365 c-1 -1 -38 -6 -81 -10 -82 -7 -98 -9 -187 -26 -137 -25
-300 -73 -366 -107 -53 -27 -108 -85 -133 -138 -88 -187 36 -400 244 -418 40
-3 140 15 182 34 22 9 156 34 249 46 100 13 317 7 389 -11 183 -46 290 -143
330 -303 16 -61 25 -171 16 -176 -3 -2 -24 2 -46 10 -40 13 -229 58 -295 69
-19 4 -116 9 -215 12 -161 5 -243 0 -385 -22 -38 -6 -163 -41 -195 -54 -11 -5
-40 -17 -65 -27 -24 -11 -72 -36 -105 -58 -160 -103 -253 -231 -306 -421 -29
-104 -32 -324 -5 -425 71 -264 237 -436 514 -531 28 -10 52 -16 52 -14 0 3 11
0 25 -5 49 -19 123 -25 280 -24 139 0 173 4 261 27 170 44 304 116 420 227 31
28 56 50 58 48 1 -1 7 -25 14 -52 68 -268 469 -322 627 -84 60 92 61 104 60
813 -2 569 -5 720 -21 798 -2 12 -7 38 -10 57 -8 50 -50 181 -79 245 -95 215
-286 377 -540 458 -148 46 -254 60 -477 63 -113 1 -208 1 -210 -1z m305 -1449
c94 -7 253 -44 314 -74 l38 -17 -2 -92 c-1 -50 -7 -111 -13 -134 -49 -180
-216 -308 -440 -335 -304 -37 -495 79 -501 303 -6 209 163 339 461 356 25 1
47 2 50 1 3 -1 45 -5 93 -8z"/>
</g>
</svg>
